<svg width="500" height="500" viewBox="0 0 500 500" fill="none" xmlns="http://www.w3.org/2000/svg">
<g clip-path="url(#clip0_329_2)">
<rect width="500" height="500" fill="#EC2127"/>
<line x1="42" y1="250" x2="457.698" y2="250" stroke="#0556A7" stroke-width="10"/>
<path d="M48.08 139V91.896H62.16C66.896 91.896 70.928 92.6 74.256 94.008C77.584 95.416 80.2507 97.2933 82.256 99.64C84.304 101.987 85.7973 104.611 86.736 107.512C87.6747 110.413 88.144 113.336 88.144 116.28C88.144 119.779 87.504 122.936 86.224 125.752C84.9867 128.525 83.28 130.915 81.104 132.92C78.928 134.883 76.4107 136.397 73.552 137.464C70.6933 138.488 67.664 139 64.464 139H48.08ZM57.36 130.04H62.864C65.2107 130.04 67.344 129.741 69.264 129.144C71.184 128.504 72.8267 127.587 74.192 126.392C75.6 125.197 76.6667 123.704 77.392 121.912C78.16 120.077 78.544 117.987 78.544 115.64C78.544 112.568 78.032 110.072 77.008 108.152C76.0267 106.189 74.7893 104.675 73.296 103.608C71.8453 102.541 70.352 101.816 68.816 101.432C67.28 101.005 65.9787 100.792 64.912 100.792H57.36V130.04ZM109.743 139.768C106.33 139.768 103.428 139.128 101.039 137.848C98.6923 136.568 96.9003 134.797 95.663 132.536C94.4257 130.275 93.807 127.672 93.807 124.728C93.807 121.912 94.5323 119.373 95.983 117.112C97.4337 114.851 99.375 113.059 101.807 111.736C104.239 110.371 106.948 109.688 109.935 109.688C113.946 109.688 117.231 110.861 119.791 113.208C122.394 115.512 124.079 118.861 124.847 123.256L103.087 130.168L101.103 125.304L116.847 119.992L114.991 120.824C114.65 119.715 114.031 118.755 113.135 117.944C112.282 117.091 110.98 116.664 109.231 116.664C107.908 116.664 106.735 116.984 105.711 117.624C104.73 118.221 103.962 119.096 103.407 120.248C102.895 121.357 102.639 122.68 102.639 124.216C102.639 125.965 102.959 127.437 103.599 128.632C104.239 129.784 105.114 130.659 106.223 131.256C107.332 131.853 108.57 132.152 109.935 132.152C110.916 132.152 111.855 131.981 112.751 131.64C113.69 131.299 114.607 130.851 115.503 130.296L119.471 136.952C117.978 137.805 116.356 138.488 114.607 139C112.9 139.512 111.279 139.768 109.743 139.768ZM119.343 97.72L109.871 106.36H104.431L109.423 97.72H119.343ZM139.486 111.032L140.19 115.96L140.062 115.576C141.171 113.699 142.558 112.248 144.222 111.224C145.886 110.157 147.891 109.624 150.238 109.624C151.774 109.624 153.118 109.837 154.27 110.264C155.465 110.691 156.467 111.331 157.278 112.184C158.089 112.995 158.643 114.061 158.942 115.384L158.622 115.448C159.817 113.699 161.246 112.291 162.91 111.224C164.617 110.157 166.387 109.624 168.222 109.624C170.995 109.624 173.193 110.413 174.814 111.992C176.478 113.528 177.331 115.533 177.374 118.008V139H168.478V121.72C168.435 120.483 168.243 119.48 167.902 118.712C167.561 117.901 166.771 117.453 165.534 117.368C164.083 117.368 162.846 117.88 161.822 118.904C160.841 119.885 160.094 121.165 159.582 122.744C159.113 124.28 158.878 125.88 158.878 127.544V139H149.918V121.72C149.875 120.483 149.641 119.48 149.214 118.712C148.83 117.901 148.019 117.453 146.782 117.368C145.374 117.368 144.179 117.88 143.198 118.904C142.259 119.885 141.534 121.144 141.022 122.68C140.553 124.216 140.318 125.795 140.318 127.416V139H131.358V111.032H139.486ZM184.432 124.664C184.432 121.805 185.093 119.245 186.416 116.984C187.781 114.723 189.68 112.952 192.112 111.672C194.544 110.349 197.339 109.688 200.496 109.688C203.696 109.688 206.469 110.349 208.816 111.672C211.163 112.952 212.955 114.723 214.192 116.984C215.472 119.245 216.112 121.805 216.112 124.664C216.112 127.523 215.472 130.104 214.192 132.408C212.955 134.669 211.163 136.461 208.816 137.784C206.469 139.107 203.653 139.768 200.368 139.768C197.296 139.768 194.544 139.171 192.112 137.976C189.723 136.781 187.845 135.053 186.48 132.792C185.115 130.531 184.432 127.821 184.432 124.664ZM193.456 124.728C193.456 126.179 193.755 127.501 194.352 128.696C194.949 129.848 195.76 130.765 196.784 131.448C197.808 132.131 198.96 132.472 200.24 132.472C201.648 132.472 202.864 132.131 203.888 131.448C204.912 130.765 205.701 129.848 206.256 128.696C206.811 127.501 207.088 126.179 207.088 124.728C207.088 123.235 206.811 121.912 206.256 120.76C205.701 119.608 204.912 118.691 203.888 118.008C202.864 117.325 201.648 116.984 200.24 116.984C198.96 116.984 197.808 117.325 196.784 118.008C195.76 118.691 194.949 119.608 194.352 120.76C193.755 121.912 193.456 123.235 193.456 124.728ZM246.915 136.504C245.677 137.485 244.12 138.275 242.243 138.872C240.408 139.469 238.595 139.768 236.803 139.768C233.603 139.768 230.808 139.192 228.419 138.04C226.072 136.845 224.237 135.16 222.915 132.984C221.635 130.765 220.995 128.099 220.995 124.984C220.995 121.869 221.699 119.224 223.107 117.048C224.515 114.829 226.349 113.144 228.611 111.992C230.915 110.84 233.325 110.264 235.843 110.264C238.36 110.264 240.536 110.605 242.371 111.288C244.248 111.971 245.848 112.867 247.171 113.976L242.819 119.736C242.221 119.267 241.389 118.797 240.323 118.328C239.299 117.816 238.083 117.56 236.675 117.56C235.437 117.56 234.307 117.88 233.283 118.52C232.259 119.16 231.448 120.035 230.851 121.144C230.253 122.253 229.955 123.533 229.955 124.984C229.955 126.349 230.275 127.608 230.915 128.76C231.555 129.912 232.429 130.829 233.539 131.512C234.691 132.152 236.035 132.472 237.571 132.472C238.552 132.472 239.448 132.344 240.259 132.088C241.112 131.789 241.837 131.384 242.435 130.872L246.915 136.504ZM261.86 111.032L262.692 118.712L262.5 117.56C263.31 115.896 264.42 114.488 265.828 113.336C267.236 112.141 268.622 111.224 269.988 110.584C271.396 109.944 272.462 109.624 273.188 109.624L272.74 118.584C270.649 118.328 268.857 118.669 267.364 119.608C265.87 120.547 264.718 121.784 263.908 123.32C263.097 124.856 262.692 126.435 262.692 128.056V139H253.796V111.032H261.86ZM290.884 139.768C288.281 139.768 285.913 139.256 283.78 138.232C281.689 137.165 280.025 135.544 278.788 133.368C277.551 131.192 276.932 128.419 276.932 125.048C276.932 121.891 277.572 119.16 278.852 116.856C280.132 114.552 281.817 112.781 283.908 111.544C285.999 110.264 288.217 109.624 290.564 109.624C293.337 109.624 295.428 110.093 296.836 111.032C298.287 111.928 299.481 112.931 300.42 114.04L300.036 115.128L300.868 111.032H309.188V139H300.228V132.92L300.932 134.84C300.847 134.84 300.591 135.096 300.164 135.608C299.737 136.077 299.097 136.653 298.244 137.336C297.433 137.976 296.409 138.531 295.172 139C293.977 139.512 292.548 139.768 290.884 139.768ZM293.444 132.472C294.511 132.472 295.471 132.323 296.324 132.024C297.177 131.683 297.924 131.213 298.564 130.616C299.204 129.976 299.759 129.187 300.228 128.248V121.4C299.887 120.461 299.375 119.672 298.692 119.032C298.009 118.349 297.199 117.837 296.26 117.496C295.321 117.112 294.276 116.92 293.124 116.92C291.844 116.92 290.649 117.261 289.54 117.944C288.473 118.584 287.62 119.48 286.98 120.632C286.34 121.784 286.02 123.107 286.02 124.6C286.02 126.093 286.361 127.437 287.044 128.632C287.727 129.827 288.623 130.765 289.732 131.448C290.884 132.131 292.121 132.472 293.444 132.472ZM321.045 98.744H330.005V110.904H336.789V117.88H330.005V139H321.045V117.88H316.693V110.904H321.045V98.744ZM343.608 111.032H352.568V139H343.608V111.032ZM343.416 101.112C343.416 99.7893 343.928 98.7013 344.952 97.848C346.019 96.9947 347.149 96.568 348.344 96.568C349.539 96.568 350.627 96.9947 351.608 97.848C352.632 98.7013 353.144 99.7893 353.144 101.112C353.144 102.435 352.632 103.523 351.608 104.376C350.627 105.187 349.539 105.592 348.344 105.592C347.149 105.592 346.019 105.187 344.952 104.376C343.928 103.523 343.416 102.435 343.416 101.112ZM375.556 139.768C372.142 139.768 369.241 139.128 366.852 137.848C364.505 136.568 362.713 134.797 361.476 132.536C360.238 130.275 359.62 127.672 359.62 124.728C359.62 121.912 360.345 119.373 361.796 117.112C363.246 114.851 365.188 113.059 367.62 111.736C370.052 110.371 372.761 109.688 375.748 109.688C379.758 109.688 383.044 110.861 385.604 113.208C388.206 115.512 389.891 118.861 390.66 123.256L368.9 130.168L366.916 125.304L382.66 119.992L380.804 120.824C380.462 119.715 379.844 118.755 378.948 117.944C378.094 117.091 376.793 116.664 375.044 116.664C373.721 116.664 372.548 116.984 371.524 117.624C370.542 118.221 369.774 119.096 369.22 120.248C368.708 121.357 368.452 122.68 368.452 124.216C368.452 125.965 368.772 127.437 369.412 128.632C370.052 129.784 370.926 130.659 372.036 131.256C373.145 131.853 374.382 132.152 375.748 132.152C376.729 132.152 377.668 131.981 378.564 131.64C379.502 131.299 380.42 130.851 381.316 130.296L385.284 136.952C383.79 137.805 382.169 138.488 380.42 139C378.713 139.512 377.092 139.768 375.556 139.768ZM62.352 155.896C66.2347 155.896 69.52 156.557 72.208 157.88C74.896 159.16 76.944 160.995 78.352 163.384C79.76 165.731 80.464 168.525 80.464 171.768C80.464 173.688 80.1653 175.629 79.568 177.592C79.0133 179.512 78.096 181.261 76.816 182.84C75.5787 184.419 73.8933 185.699 71.76 186.68C69.6693 187.619 67.088 188.088 64.016 188.088H57.36V203H48.08V155.896H62.352ZM63.952 179.064C65.36 179.064 66.5333 178.829 67.472 178.36C68.4107 177.848 69.136 177.229 69.648 176.504C70.2027 175.736 70.5867 174.947 70.8 174.136C71.056 173.325 71.184 172.621 71.184 172.024C71.184 171.555 71.0987 170.936 70.928 170.168C70.8 169.357 70.5013 168.547 70.032 167.736C69.5627 166.925 68.8373 166.243 67.856 165.688C66.9173 165.133 65.6373 164.856 64.016 164.856H57.36V179.064H63.952ZM99.0715 203.768C96.4688 203.768 94.1008 203.256 91.9675 202.232C89.8768 201.165 88.2128 199.544 86.9755 197.368C85.7382 195.192 85.1195 192.419 85.1195 189.048C85.1195 185.891 85.7595 183.16 87.0395 180.856C88.3195 178.552 90.0048 176.781 92.0955 175.544C94.1862 174.264 96.4048 173.624 98.7515 173.624C101.525 173.624 103.616 174.093 105.024 175.032C106.474 175.928 107.669 176.931 108.608 178.04L108.224 179.128L109.056 175.032H117.376V203H108.416V196.92L109.12 198.84C109.034 198.84 108.778 199.096 108.352 199.608C107.925 200.077 107.285 200.653 106.432 201.336C105.621 201.976 104.597 202.531 103.36 203C102.165 203.512 100.736 203.768 99.0715 203.768ZM101.632 196.472C102.698 196.472 103.658 196.323 104.512 196.024C105.365 195.683 106.112 195.213 106.752 194.616C107.392 193.976 107.946 193.187 108.416 192.248V185.4C108.074 184.461 107.562 183.672 106.88 183.032C106.197 182.349 105.386 181.837 104.448 181.496C103.509 181.112 102.464 180.92 101.312 180.92C100.032 180.92 98.8368 181.261 97.7275 181.944C96.6608 182.584 95.8075 183.48 95.1675 184.632C94.5275 185.784 94.2075 187.107 94.2075 188.6C94.2075 190.093 94.5488 191.437 95.2315 192.632C95.9142 193.827 96.8102 194.765 97.9195 195.448C99.0715 196.131 100.309 196.472 101.632 196.472ZM134.672 175.032L135.504 182.712L135.312 181.56C136.123 179.896 137.232 178.488 138.64 177.336C140.048 176.141 141.435 175.224 142.8 174.584C144.208 173.944 145.275 173.624 146 173.624L145.552 182.584C143.461 182.328 141.669 182.669 140.176 183.608C138.683 184.547 137.531 185.784 136.72 187.32C135.909 188.856 135.504 190.435 135.504 192.056V203H126.608V175.032H134.672ZM155.482 162.744H164.442V174.904H171.226V181.88H164.442V203H155.482V181.88H151.13V174.904H155.482V162.744ZM178.046 175.032H187.006V203H178.046V175.032ZM177.854 165.112C177.854 163.789 178.366 162.701 179.39 161.848C180.456 160.995 181.587 160.568 182.782 160.568C183.976 160.568 185.064 160.995 186.046 161.848C187.07 162.701 187.582 163.789 187.582 165.112C187.582 166.435 187.07 167.523 186.046 168.376C185.064 169.187 183.976 169.592 182.782 169.592C181.587 169.592 180.456 169.187 179.39 168.376C178.366 167.523 177.854 166.435 177.854 165.112ZM219.977 200.504C218.74 201.485 217.182 202.275 215.305 202.872C213.47 203.469 211.657 203.768 209.865 203.768C206.665 203.768 203.87 203.192 201.481 202.04C199.134 200.845 197.3 199.16 195.977 196.984C194.697 194.765 194.057 192.099 194.057 188.984C194.057 185.869 194.761 183.224 196.169 181.048C197.577 178.829 199.412 177.144 201.673 175.992C203.977 174.84 206.388 174.264 208.905 174.264C211.422 174.264 213.598 174.605 215.433 175.288C217.31 175.971 218.91 176.867 220.233 177.976L215.881 183.736C215.284 183.267 214.452 182.797 213.385 182.328C212.361 181.816 211.145 181.56 209.737 181.56C208.5 181.56 207.369 181.88 206.345 182.52C205.321 183.16 204.51 184.035 203.913 185.144C203.316 186.253 203.017 187.533 203.017 188.984C203.017 190.349 203.337 191.608 203.977 192.76C204.617 193.912 205.492 194.829 206.601 195.512C207.753 196.152 209.097 196.472 210.633 196.472C211.614 196.472 212.51 196.344 213.321 196.088C214.174 195.789 214.9 195.384 215.497 194.872L219.977 200.504ZM226.858 175.032H235.818V203H226.858V175.032ZM226.666 165.112C226.666 163.789 227.178 162.701 228.202 161.848C229.269 160.995 230.399 160.568 231.594 160.568C232.789 160.568 233.877 160.995 234.858 161.848C235.882 162.701 236.394 163.789 236.394 165.112C236.394 166.435 235.882 167.523 234.858 168.376C233.877 169.187 232.789 169.592 231.594 169.592C230.399 169.592 229.269 169.187 228.202 168.376C227.178 167.523 226.666 166.435 226.666 165.112ZM262.582 203.768C260.918 203.768 259.275 203.469 257.654 202.872C256.075 202.232 254.752 201.336 253.686 200.184L253.942 197.56V216.44H245.046V174.392H252.726L254.006 179.832L253.302 177.912C254.752 176.675 256.374 175.651 258.166 174.84C259.958 174.029 262.027 173.624 264.374 173.624C266.976 173.624 269.302 174.243 271.35 175.48C273.398 176.675 274.998 178.424 276.15 180.728C277.344 182.989 277.942 185.72 277.942 188.92C277.942 192.077 277.28 194.765 275.958 196.984C274.635 199.203 272.822 200.888 270.518 202.04C268.214 203.192 265.568 203.768 262.582 203.768ZM260.79 196.728C262.24 196.728 263.563 196.408 264.758 195.768C265.995 195.128 266.976 194.232 267.702 193.08C268.47 191.885 268.854 190.541 268.854 189.048C268.854 187.469 268.512 186.104 267.83 184.952C267.19 183.757 266.294 182.84 265.142 182.2C264.032 181.517 262.795 181.176 261.43 181.176C260.235 181.176 259.168 181.347 258.23 181.688C257.334 181.987 256.523 182.456 255.798 183.096C255.115 183.693 254.518 184.461 254.006 185.4V192.248C254.347 193.144 254.838 193.933 255.478 194.616C256.118 195.299 256.886 195.832 257.782 196.216C258.72 196.557 259.723 196.728 260.79 196.728ZM296.759 203.768C294.156 203.768 291.788 203.256 289.655 202.232C287.564 201.165 285.9 199.544 284.663 197.368C283.426 195.192 282.807 192.419 282.807 189.048C282.807 185.891 283.447 183.16 284.727 180.856C286.007 178.552 287.692 176.781 289.783 175.544C291.874 174.264 294.092 173.624 296.439 173.624C299.212 173.624 301.303 174.093 302.711 175.032C304.162 175.928 305.356 176.931 306.295 178.04L305.911 179.128L306.743 175.032H315.063V203H306.103V196.92L306.807 198.84C306.722 198.84 306.466 199.096 306.039 199.608C305.612 200.077 304.972 200.653 304.119 201.336C303.308 201.976 302.284 202.531 301.047 203C299.852 203.512 298.423 203.768 296.759 203.768ZM299.319 196.472C300.386 196.472 301.346 196.323 302.199 196.024C303.052 195.683 303.799 195.213 304.439 194.616C305.079 193.976 305.634 193.187 306.103 192.248V185.4C305.762 184.461 305.25 183.672 304.567 183.032C303.884 182.349 303.074 181.837 302.135 181.496C301.196 181.112 300.151 180.92 298.999 180.92C297.719 180.92 296.524 181.261 295.415 181.944C294.348 182.584 293.495 183.48 292.855 184.632C292.215 185.784 291.895 187.107 291.895 188.6C291.895 190.093 292.236 191.437 292.919 192.632C293.602 193.827 294.498 194.765 295.607 195.448C296.759 196.131 297.996 196.472 299.319 196.472ZM326.92 162.744H335.88V174.904H342.664V181.88H335.88V203H326.92V181.88H322.568V174.904H326.92V162.744ZM349.483 175.032H358.443V203H349.483V175.032ZM349.291 165.112C349.291 163.789 349.803 162.701 350.827 161.848C351.894 160.995 353.024 160.568 354.219 160.568C355.414 160.568 356.502 160.995 357.483 161.848C358.507 162.701 359.019 163.789 359.019 165.112C359.019 166.435 358.507 167.523 357.483 168.376C356.502 169.187 355.414 169.592 354.219 169.592C353.024 169.592 351.894 169.187 350.827 168.376C349.803 167.523 349.291 166.435 349.291 165.112ZM380.471 203.576L363.703 175.032H374.327L383.863 194.36L378.359 194.168L386.615 175.032H396.599L380.727 203.576H380.471ZM414.681 203.768C411.267 203.768 408.366 203.128 405.977 201.848C403.63 200.568 401.838 198.797 400.601 196.536C399.363 194.275 398.745 191.672 398.745 188.728C398.745 185.912 399.47 183.373 400.921 181.112C402.371 178.851 404.313 177.059 406.745 175.736C409.177 174.371 411.886 173.688 414.873 173.688C418.883 173.688 422.169 174.861 424.729 177.208C427.331 179.512 429.016 182.861 429.785 187.256L408.025 194.168L406.041 189.304L421.785 183.992L419.929 184.824C419.587 183.715 418.969 182.755 418.073 181.944C417.219 181.091 415.918 180.664 414.169 180.664C412.846 180.664 411.673 180.984 410.649 181.624C409.667 182.221 408.899 183.096 408.345 184.248C407.833 185.357 407.577 186.68 407.577 188.216C407.577 189.965 407.897 191.437 408.537 192.632C409.177 193.784 410.051 194.659 411.161 195.256C412.27 195.853 413.507 196.152 414.873 196.152C415.854 196.152 416.793 195.981 417.689 195.64C418.627 195.299 419.545 194.851 420.441 194.296L424.409 200.952C422.915 201.805 421.294 202.488 419.545 203C417.838 203.512 416.217 203.768 414.681 203.768Z" fill="white"/>
<path d="M63.4268 291.067C58.9192 291.067 57.4499 297.164 61.5118 299.124C83.8843 309.859 116.461 331.779 112.768 367.293C112.055 374.054 117.782 379.874 124.582 379.976C157.637 380.447 236.248 387.585 250 443.867C263.752 387.585 342.363 380.435 375.418 379.951C382.218 379.849 387.932 374.042 387.232 367.268C383.539 331.754 416.116 309.847 438.488 299.1C442.563 297.151 441.081 291.067 436.573 291.067H323.515C317.976 291.067 313.138 294.808 311.801 300.194C309.293 310.33 303.99 325.574 294.542 327.675C281.019 330.858 267.757 335.789 266.165 327.028C266.165 320.051 264.598 311.351 263.579 306.436C263.35 305.341 261.797 305.242 261.44 306.312L257.163 318.921C257.163 318.921 255.577 316.533 250 316.533C244.436 316.533 242.838 318.921 242.838 318.921L238.56 306.312C238.203 305.242 236.65 305.341 236.421 306.436C235.402 311.351 233.835 320.051 233.835 327.028C232.243 335.789 218.981 330.858 205.458 327.675C196.01 325.587 190.707 310.342 188.199 300.194C186.862 294.808 182.049 291.067 176.51 291.067H63.4268Z" fill="white"/>
</g>
<defs>
<clipPath id="clip0_329_2">
<rect width="500" height="500" fill="white"/>
</clipPath>
</defs>
</svg>
